<svg width="464.05075" height="970.73016" xmlns="http://www.w3.org/2000/svg" xmlns:xlink="http://www.w3.org/1999/xlink">
 <metadata id="metadata46">image/svg+xml</metadata>
 <defs>
  <linearGradient id="linearGradient1262">
   <stop offset="0" id="stop1263" stop-color="#000"/>
   <stop offset="1" id="stop1264" stop-color="#fff"/>
  </linearGradient>
  <linearGradient id="linearGradient1257">
   <stop offset="0" id="stop1258" stop-color="#ff0a31"/>
   <stop offset="1" id="stop1259" stop-color="#c60200"/>
  </linearGradient>
  <linearGradient id="linearGradient1253">
   <stop offset="0" id="stop1254" stop-color="#6b5635"/>
   <stop offset="1" id="stop1255" stop-color="#fff"/>
  </linearGradient>
  <linearGradient xlink:href="#linearGradient1257" id="linearGradient1256" x1="0" y1="0.5" x2="1" y2="0.5"/>
  <radialGradient xlink:href="#linearGradient1257" id="radialGradient1260" cx="0.5" cy="0.5" r="0.65536" fx="0.5" fy="0.5"/>
  <radialGradient xlink:href="#linearGradient1253" id="radialGradient1261" cx="0.79851" cy="0.60156" r="2.14631" fx="0.81343" fy="0.59375"/>
  <radialGradient xlink:href="#linearGradient1253" id="radialGradient1265" cx="0.28226" cy="0.53125" r="1.68145" fx="0.26613" fy="0.55469"/>
  <linearGradient xlink:href="#linearGradient1257" id="linearGradient1266" x1="0" y1="0.5" x2="1" y2="0.5"/>
  <linearGradient xlink:href="#linearGradient1262" id="linearGradient1267" x1="0" y1="0.5" x2="1" y2="0.5"/>
  <radialGradient xlink:href="#linearGradient1262" id="radialGradient1268"/>
  <radialGradient xlink:href="#linearGradient1257" id="radialGradient1937" cx="565.16344" cy="346.25639" fx="565.16344" fy="346.25639" r="420.98908" gradientTransform="scale(0.662921,1.508475)" gradientUnits="userSpaceOnUse"/>
  <linearGradient xlink:href="#linearGradient1257" id="linearGradient1939" x1="643.22952" y1="310.0814" x2="680.99921" y2="310.0814" gradientTransform="scale(0.889199,1.124607)" gradientUnits="userSpaceOnUse"/>
  <linearGradient xlink:href="#linearGradient1257" id="linearGradient1941" x1="156.17939" y1="313.27598" x2="193.83391" y2="313.27598" gradientTransform="scale(0.905966,1.103794)" gradientUnits="userSpaceOnUse"/>
  <radialGradient xlink:href="#linearGradient1253" id="radialGradient1943" cx="537.79329" cy="113.83186" fx="538.56221" fy="113.42938" r="110.57287" gradientTransform="scale(1.019462,0.98091)" gradientUnits="userSpaceOnUse"/>
  <radialGradient xlink:href="#linearGradient1253" id="radialGradient1945" cx="209.52726" cy="106.33161" fx="208.67567" fy="107.56908" r="88.77847" gradientTransform="scale(0.982927,1.01737)" gradientUnits="userSpaceOnUse"/>
  <radialGradient xlink:href="#linearGradient1253" id="radialGradient2569" gradientUnits="userSpaceOnUse" gradientTransform="matrix(0.982927,0,0,1.01737,-141.4933,-36.09553)" cx="209.52726" cy="106.33161" fx="208.67567" fy="107.56908" r="88.77847"/>
  <radialGradient xlink:href="#linearGradient1253" id="radialGradient2572" gradientUnits="userSpaceOnUse" gradientTransform="matrix(1.019462,0,0,0.98091,-141.4933,-36.09553)" cx="537.79329" cy="113.83186" fx="538.56221" fy="113.42938" r="110.57287"/>
  <linearGradient xlink:href="#linearGradient1257" id="linearGradient2575" x1="-0.01902" y1="0.5" x2="1.01902" y2="0.5"/>
  <linearGradient xlink:href="#linearGradient1257" id="linearGradient2578" x1="-0.01933" y1="0.5" x2="1.01932" y2="0.5"/>
  <radialGradient xlink:href="#linearGradient1257" id="radialGradient2584" gradientUnits="userSpaceOnUse" gradientTransform="matrix(0.662921,0,0,1.508475,-141.4933,-36.09553)" cx="565.16344" cy="346.25639" fx="565.16344" fy="346.25639" r="420.98908"/>
 </defs>
 <g>
  <title>Layer 1</title>
  <path d="m231.35452,2.09178c175.61041,6.15792 228.85764,30.31043 209.40671,288.39256c-3.05377,7.12549 -6.10757,14.25098 -9.16135,21.37643c3.59894,119.09753 7.19785,238.91486 0,357.2926c11.69119,12.77026 6.10757,29.85919 9.16135,44.78882c4.99731,38.44421 7.11551,92.72363 2.03586,145.5636c-8.50027,118.70068 -132.16589,107.84039 -202.56757,109.93616c-78.45276,-1.75647 -184.25729,23.83881 -213.76478,-108.91821c-2.87913,-61.19916 -3.59892,-110.16199 0,-177.11938c2.71447,-5.08966 5.42895,-10.17926 8.14342,-15.26892c-3.27716,-117.646 -7.2741,-233.1326 -1.19408,-357.25659c-3.59892,-9.83704 -7.19783,-19.67407 -10.79675,-29.51114c-13.19603,-254.32347 36.94888,-270.39862 208.73718,-279.27597l0.00002,0.00004z" id="path1228" stroke-width="0.75" stroke="#000000" fill-rule="evenodd" fill="#4472A1"/>
  <path d="m431.59988,98.09604c-37.32401,-74.30871 -122.4906,-83.47006 -203.58549,-85.50591c-86.18452,3.7324 -154.04637,5.42894 -197.47794,96.70311c11.87582,-34.60954 0.33931,-104.84653 198.49587,-108.91825c179.83386,3.39309 190.69174,51.575 202.56757,97.72104l0,0.00001z" id="path1234" stroke-width="0.75" stroke="#000000" fill-rule="evenodd" fill="#4472A1"/>
  <path d="m62.0922,234.49832c80.41627,-91.27417 260.58944,-99.07828 338.96987,1.01793c-5.42896,47.50328 -10.85791,95.00658 -16.28687,142.50984c-73.96939,-16.62613 -190.69174,-34.27023 -304.36032,5.08966c-6.10757,-49.53915 -12.21513,-99.07831 -18.3227,-148.61743l0.00001,0z" id="path1229" stroke-width="1pt" stroke="#000000" fill-rule="evenodd" fill-opacity="0.83065" fill="#000000"/>
  <path d="m93.64795,706.81671c99.07828,10.51855 191.03107,16.96545 278.91214,-5.08966c0,48.52118 0,97.04242 0,145.56366c-87.20245,58.02185 -192.72762,54.96808 -276.87628,3.05377c-0.67862,-47.84259 -1.35724,-95.68518 -2.03586,-143.52777z" id="path1230" stroke-width="1pt" stroke="#000000" fill-rule="evenodd" fill-opacity="0.83065" fill="#000000"/>
  <path d="m440.25226,292.01123c23.24271,10.68823 27.14474,35.62747 19.84961,41.22607c-8.14343,-0.84827 -20.35855,-12.3848 -28.50198,-14.25101c-0.16965,-2.37515 -0.33929,-4.75031 -0.50894,-7.12549c3.39307,-6.44687 5.76825,-13.40271 9.16132,-19.84958z" id="path1232" stroke-width="1pt" stroke="#000000" fill-rule="evenodd" fill="#4472A1"/>
  <path d="m25.20956,289.54013c-23.69043,9.6553 -28.68595,34.39868 -21.64419,40.31284c8.17285,-0.48917 20.88373,-11.47708 29.10137,-12.98318c0.27398,-2.36542 0.54798,-4.7308 0.82196,-7.09622c-3.10616,-6.5899 -5.17298,-13.64352 -8.27914,-20.23343z" id="path1233" stroke-width="1pt" stroke="#000000" fill-rule="evenodd" fill="#4472A1"/>
  <path d="m381.72144,45.16381c-24.93921,6.10756 -20.86752,19.34062 3.05377,39.69917c19.51028,14.08133 31.38611,16.45649 32.5737,-5.08965c-1.69653,-12.55444 -30.36816,-33.25229 -35.62747,-34.60953l0,0.00001z" id="path1235" stroke-width="1pt" fill-rule="evenodd" fill="#000000"/>
  <path d="m83.15386,44.17154c25.35051,4.07664 22.35916,17.59493 0.15742,39.81614c-18.31126,15.60873 -29.95688,18.9338 -32.87802,-2.44641c0.67866,-12.65034 27.58789,-35.59282 32.7206,-37.36973z" id="path1236" stroke-width="1pt" stroke="#000000" fill-rule="evenodd" fill="#000000"/>
  <path d="m49.87707,270.12579c-9.16135,147.26016 -7.12549,283.32312 -2.03585,425.49371c4.07171,25.10883 7.12549,51.23566 11.1972,76.34454c12.38479,-61.92395 20.18889,-192.55798 14.25098,-315.55753c-5.25928,-66.16528 -13.57236,-123.67819 -23.41233,-186.28073z" id="path1237" stroke-width="1pt" stroke="#000000" fill-rule="evenodd" fill-opacity="0.83065" fill="#000000"/>
  <path d="m417.24084,258.62c9.16135,147.26016 7.12549,283.32312 2.03583,425.49371c-4.07172,25.10883 -7.12549,51.23566 -11.1972,76.34454c-12.38477,-61.92395 -20.18884,-192.55798 -14.25098,-315.55753c5.25931,-66.16528 13.57236,-123.67819 23.41235,-186.28073z" id="path1238" stroke-width="1pt" stroke="#000000" fill-rule="evenodd" fill-opacity="0.83065" fill="#000000"/>
  <path d="m193.20599,897.50238l82.77512,-0.71979l-2.15936,8.63739l-76.29704,0.71979l-4.31871,-8.63739z" id="path1239" stroke-width="1pt" stroke="#000000" fill-rule="evenodd" fill-opacity="0.58065" fill="#000000"/>
  <path id="path1241" d="m252.22826,921.61517a16.91491,8.99729 0 1 1 -33.82982,0a16.91491,8.99729 0 1 1 33.82982,0z" stroke-width="1pt" stroke="#000000" fill-rule="evenodd" fill="#184777"/>
  <path d="m354.4375,918.3761c5.51834,-10.07697 49.18518,-28.07153 57.58267,-21.59351c5.9982,17.99457 -25.43234,36.70898 -38.14853,41.02765c-10.79675,0 -20.15393,-8.63739 -19.43414,-19.43414z" id="path1242" stroke-width="1pt" stroke="#000000" fill-rule="evenodd" fill="#000000"/>
  <path d="m118.00233,920.24042c-5.51833,-10.07697 -49.1852,-28.07159 -57.58268,-21.59351c-5.99819,17.99457 25.43234,36.70892 38.14852,41.02765c10.79675,0 20.15394,-8.63739 19.43416,-19.43414z" id="path1243" stroke-width="1pt" stroke="#000000" fill-rule="evenodd" fill="#000000"/>
  <path d="m382.50906,380.69788c-11.51654,107.9675 -12.23633,214.49548 -10.79675,316.70471" id="path1244" stroke-opacity="0.64516" stroke-width="3.5" stroke="#000000" fill-rule="evenodd" fill-opacity="0.75" fill="none"/>
  <path d="m80.91978,384.29678c9.83704,117.80457 13.19602,217.61453 13.67588,318.86404" id="path1245" stroke-opacity="0.66129" stroke-width="2.75" stroke="#000000" fill-rule="evenodd" fill-opacity="0.75" fill="none"/>
  <path id="path1250" d="m222.3028,686.63171c-0.46472,-1.01215 0.23471,2.21716 0.43553,3.31262c0.39856,2.17419 0.88936,4.32855 1.44133,6.46887c1.63855,6.3537 3.80817,12.51294 6.13649,18.64178c0.57831,1.43506 1.1566,2.87012 1.73489,4.30511l-0.83395,0.15637c-0.59677,-1.43378 -1.19354,-2.86755 -1.7903,-4.30127c-3.6741,-9.02631 -8.73102,-18.92938 -10.61404,-28.5835l3.49005,0z" stroke-width="1pt" fill-rule="nonzero" fill-opacity="0.75" fill="#000000"/>
  <path d="m169.45316,937.09045c-0.35988,5.63831 -2.15936,10.55682 -4.31871,15.83527c47.62567,2.63922 99.21016,3.11908 148.27541,-2.87915c-2.99911,-3.83881 -4.91855,-9.11725 -5.75827,-15.83521c-43.9068,4.55859 -91.41251,4.79852 -138.19843,2.87909z" id="path1251" stroke-width="1pt" stroke="#000000" fill-rule="evenodd" fill="#F8D45C"/>
  <path id="path1271" d="m251.12297,31.27915a18.71437,9.66321 0 1 1 -37.42874,0a18.71437,9.66321 0 1 1 37.42874,0z" stroke-width="0.5" stroke="#000000" fill-rule="evenodd" fill="#184777"/>
  <path transform="scale(1.35402 0.738543)" d="m165.31194,-48.44462l1.85736,0l1.34822,11.42696l1.6028,-7.56141l1.98935,0l1.62163,7.58026l1.34825,-11.44581l1.85736,0l-2.10249,14.07628l-1.80078,0l-1.91391,-8.3628l-1.90451,8.3628l-1.80078,0l-2.10248,-14.07628l-0.00002,0z" id="text1272" stroke-width="1pt" fill="#ffffff"/>
  <path d="m61.58324,229.32092c6.10756,-136.87814 64.12943,-201.57448 169.48494,-208.52531c130.97333,3.92099 162.18979,87.50934 169.9939,209.06001" id="path1276" stroke-opacity="0.46774" stroke-width="2.43426" stroke="#000000" fill-rule="evenodd" fill-opacity="0.75" fill="none"/>
  <path transform="scale(1.33858 0.747062)" d="m150.48737,1269.59717l0,0.90039l-5.04294,0c-0.00694,-0.22559 0.02948,-0.44238 0.10928,-0.65051c0.12837,-0.34351 0.33394,-0.68176 0.6167,-1.01489c0.28278,-0.33301 0.6913,-0.71814 1.22562,-1.1554c0.82921,-0.67993 1.38953,-1.21851 1.68097,-1.61584c0.29144,-0.39722 0.43716,-0.77283 0.43716,-1.12671c0,-0.37122 -0.13271,-0.68445 -0.39812,-0.93945c-0.26543,-0.255 -0.61151,-0.38245 -1.03827,-0.38245c-0.45103,0 -0.81186,0.13525 -1.08249,0.40588c-0.27061,0.27075 -0.40767,0.64539 -0.41113,1.12427l-0.9628,-0.099c0.06593,-0.71814 0.314,-1.2655 0.74422,-1.64197c0.43022,-0.37634 1.0079,-0.56458 1.73303,-0.56458c0.73206,0 1.31146,0.20288 1.73822,0.60889c0.42674,0.40588 0.64012,0.90906 0.64012,1.50916c0,0.3053 -0.06244,0.60547 -0.18735,0.90039c-0.12492,0.29492 -0.3322,0.60547 -0.6219,0.93152c-0.28972,0.32617 -0.77112,0.77368 -1.4442,1.34277c-0.56207,0.4718 -0.92288,0.79187 -1.08249,0.96021c-0.15959,0.16821 -0.29144,0.3374 -0.39552,0.50732l3.74188,0zm1.15016,-0.86389l0.90033,-0.08325c0.07632,0.42322 0.22205,0.73035 0.43715,0.92114c0.21512,0.1908 0.49094,0.28625 0.82748,0.28625c0.28796,0 0.54037,-0.06592 0.75722,-0.19775c0.21684,-0.13184 0.39467,-0.30786 0.53345,-0.52832c0.13878,-0.22021 0.255,-0.5177 0.34868,-0.89246c0.09367,-0.37463 0.14053,-0.75635 0.14053,-1.1449c0,-0.04175 -0.00174,-0.10413 -0.0052,-0.18738c-0.18736,0.29834 -0.44324,0.54041 -0.76762,0.72595c-0.32442,0.18567 -0.67569,0.27844 -1.05388,0.27844c-0.63144,0 -1.16576,-0.229 -1.60292,-0.68689c-0.43715,-0.45801 -0.65573,-1.06177 -0.65573,-1.81116c0,-0.77368 0.22812,-1.39648 0.68437,-1.86841c0.45624,-0.4718 1.02783,-0.70764 1.7148,-0.70764c0.49614,0 0.94978,0.13354 1.36093,0.40063c0.41112,0.26721 0.72339,0.64795 0.93677,1.14233c0.21336,0.49438 0.32005,1.20996 0.32005,2.14685c0,0.97485 -0.10582,1.75122 -0.31746,2.32886c-0.21164,0.57776 -0.5265,1.01746 -0.94458,1.31934c-0.41808,0.30176 -0.90814,0.45276 -1.4702,0.45276c-0.59677,0 -1.08423,-0.16565 -1.4624,-0.49695c-0.37819,-0.33142 -0.60544,-0.79724 -0.68176,-1.39746l0,0zm3.83553,-3.36719c0,-0.53772 -0.1431,-0.96448 -0.42934,-1.28015c-0.28624,-0.3158 -0.6306,-0.47363 -1.03305,-0.47363c-0.41635,0 -0.77892,0.17004 -1.08769,0.51001c-0.30878,0.33997 -0.4632,0.78064 -0.46318,1.3219c-0.00002,0.48572 0.14659,0.88037 0.43977,1.18396c0.29317,0.30359 0.65485,0.45544 1.08507,0.45544c0.4337,0 0.79019,-0.15186 1.06949,-0.45544c0.27928,-0.30359 0.41893,-0.72424 0.41893,-1.26208l0,0zm1.96202,3.11743l0.93678,-0.12488c0.10754,0.53076 0.29056,0.91333 0.54904,1.14746c0.25848,0.23425 0.57333,0.35132 0.94458,0.35132c0.44063,0 0.81273,-0.15259 1.11632,-0.45789c0.30357,-0.30542 0.45537,-0.68359 0.45537,-1.13464c0,-0.43018 -0.14052,-0.78503 -0.42154,-1.06433c-0.28104,-0.27917 -0.6384,-0.41882 -1.07208,-0.41882c-0.17696,0 -0.39725,0.03467 -0.66095,0.104l0.10408,-0.82227c0.06245,0.00708 0.11276,0.01038 0.15094,0.01038c0.399,0 0.75807,-0.104 1.07727,-0.31213c0.31921,-0.20825 0.47879,-0.52917 0.47882,-0.96277c-0.00003,-0.34351 -0.11624,-0.62805 -0.34869,-0.85352c-0.23245,-0.22559 -0.53258,-0.33838 -0.90033,-0.33838c-0.3643,0 -0.66789,0.1145 -0.91075,0.34351c-0.24287,0.229 -0.399,0.57251 -0.4684,1.0304l-0.93677,-0.1665c0.1145,-0.62793 0.37471,-1.1145 0.78064,-1.45972c0.40594,-0.34521 0.91075,-0.51782 1.51443,-0.51782c0.41634,0 0.79973,0.08923 1.15015,0.26794c0.35043,0.17871 0.61844,0.42249 0.80406,0.7312c0.18561,0.30884 0.27843,0.6366 0.27843,0.98364c0,0.32959 -0.08846,0.62964 -0.2654,0.90027c-0.17697,0.27075 -0.4389,0.48584 -0.78587,0.64539c0.45105,0.104 0.80148,0.32007 1.05127,0.64795c0.2498,0.32788 0.37471,0.73804 0.37471,1.23083c0,0.66614 -0.24286,1.23071 -0.72858,1.69397c-0.48576,0.46313 -1.09985,0.69482 -1.84233,0.69482c-0.66963,0 -1.22562,-0.19958 -1.66797,-0.59851c-0.44237,-0.39905 -0.69478,-0.91602 -0.75723,-1.5509l0,0zm6.06819,0.24976l0.90034,-0.08325c0.07632,0.42322 0.22205,0.73035 0.43716,0.92114c0.21509,0.1908 0.49092,0.28625 0.82747,0.28625c0.28796,0 0.54036,-0.06592 0.75723,-0.19775c0.21683,-0.13184 0.39464,-0.30786 0.53342,-0.52832c0.13879,-0.22021 0.255,-0.5177 0.34869,-0.89246c0.09367,-0.37463 0.1405,-0.75635 0.1405,-1.1449c0,-0.04175 -0.00174,-0.10413 -0.00519,-0.18738c-0.18736,0.29834 -0.44325,0.54041 -0.76764,0.72595c-0.3244,0.18567 -0.6757,0.27844 -1.05386,0.27844c-0.63147,0 -1.16577,-0.229 -1.60292,-0.68689c-0.43716,-0.45801 -0.65575,-1.06177 -0.65575,-1.81116c0,-0.77368 0.22812,-1.39648 0.68436,-1.86841c0.45625,-0.4718 1.02786,-0.70764 1.71481,-0.70764c0.49614,0 0.94978,0.13354 1.36092,0.40063c0.41115,0.26721 0.7234,0.64795 0.93678,1.14233c0.21336,0.49438 0.32005,1.20996 0.32007,2.14685c-0.00002,0.97485 -0.10583,1.75122 -0.31746,2.32886c-0.21165,0.57776 -0.52652,1.01746 -0.94458,1.31934c-0.41809,0.30176 -0.90816,0.45276 -1.47021,0.45276c-0.59676,0 -1.08423,-0.16565 -1.4624,-0.49695c-0.37816,-0.33142 -0.60541,-0.79724 -0.68175,-1.39746l0,0zm3.83557,-3.36719c0,-0.53772 -0.14314,-0.96448 -0.42935,-1.28015c-0.28624,-0.3158 -0.63058,-0.47363 -1.03305,-0.47363c-0.41635,0 -0.77893,0.17004 -1.08769,0.51001c-0.30879,0.33997 -0.46318,0.78064 -0.46318,1.3219c0,0.48572 0.14659,0.88037 0.43976,1.18396c0.29318,0.30359 0.65486,0.45544 1.0851,0.45544c0.43367,0 0.79018,-0.15186 1.06947,-0.45544c0.2793,-0.30359 0.41895,-0.72424 0.41895,-1.26208l0,0zm1.96202,3.11743l0.93677,-0.12488c0.10753,0.53076 0.29056,0.91333 0.54906,1.14746c0.25847,0.23425 0.57332,0.35132 0.94456,0.35132c0.44063,0 0.81273,-0.15259 1.11632,-0.45789c0.30356,-0.30542 0.45537,-0.68359 0.45537,-1.13464c-0.00002,-0.43018 -0.14052,-0.78503 -0.42154,-1.06433c-0.28102,-0.27917 -0.63838,-0.41882 -1.07208,-0.41882c-0.17694,0 -0.39726,0.03467 -0.66093,0.104l0.10408,-0.82227c0.06245,0.00708 0.11276,0.01038 0.15092,0.01038c0.39899,0 0.75809,-0.104 1.07729,-0.31213c0.31918,-0.20825 0.47879,-0.52917 0.47879,-0.96277c0,-0.34351 -0.11623,-0.62805 -0.34868,-0.85352c-0.23247,-0.22559 -0.53258,-0.33838 -0.90034,-0.33838c-0.36429,0 -0.66788,0.1145 -0.91075,0.34351c-0.24286,0.229 -0.39899,0.57251 -0.46837,1.0304l-0.93677,-0.1665c0.11449,-0.62793 0.37471,-1.1145 0.78064,-1.45972c0.40593,-0.34521 0.91075,-0.51782 1.51445,-0.51782c0.41634,0 0.7997,0.08923 1.15015,0.26794c0.3504,0.17871 0.61842,0.42249 0.80406,0.7312c0.18561,0.30884 0.27841,0.6366 0.27843,0.98364c-0.00002,0.32959 -0.08849,0.62964 -0.26543,0.90027c-0.17694,0.27075 -0.43889,0.48584 -0.78584,0.64539c0.45103,0.104 0.80145,0.32007 1.05127,0.64795c0.2498,0.32788 0.37469,0.73804 0.37469,1.23083c0,0.66614 -0.24287,1.23071 -0.72859,1.69397c-0.48573,0.46313 -1.09984,0.69482 -1.84233,0.69482c-0.66962,0 -1.2256,-0.19958 -1.66797,-0.59851c-0.44237,-0.39905 -0.69475,-0.91602 -0.75722,-1.5509l0,0zm8.4257,2.01404l2.93002,-7.62952l1.08768,0l3.12257,7.62952l-1.15015,0l-0.88992,-2.31067l-3.19023,0l-0.83789,2.31067l-1.07208,0zm2.20143,-3.13293l2.58652,0l-0.79625,-2.11304c-0.24286,-0.64185 -0.42328,-1.16919 -0.54124,-1.58203c-0.09714,0.48926 -0.23419,0.97498 -0.41113,1.45715l-0.83789,2.23792zm5.71428,3.13293l0,-7.62952l2.86235,0c0.58287,0 1.0504,0.07727 1.40257,0.23169c0.35213,0.15442 0.62798,0.39197 0.82747,0.71301c0.19949,0.3208 0.29924,0.65662 0.29924,1.00696c0,0.32605 -0.08847,0.63318 -0.26541,0.92114c-0.17696,0.28796 -0.44411,0.52051 -0.80147,0.69739c0.46144,0.13525 0.81621,0.36609 1.0643,0.69214c0.24805,0.32617 0.3721,0.71118 0.3721,1.15527c0,0.35742 -0.07545,0.6897 -0.22639,0.9967c-0.15094,0.30701 -0.33742,0.54382 -0.55945,0.71033c-0.22206,0.16663 -0.50049,0.29248 -0.83531,0.37744c-0.33481,0.08496 -0.74506,0.12744 -1.23079,0.12744l-2.90919,0l-0.00002,0zm1.00964,-4.42371l1.64975,0c0.44757,0 0.76849,-0.02942 0.96278,-0.0885c0.25674,-0.07629 0.45016,-0.20288 0.58028,-0.37988c0.1301,-0.17688 0.19516,-0.39893 0.19516,-0.66602c0,-0.2533 -0.0607,-0.4762 -0.18213,-0.66882c-0.12144,-0.1925 -0.29492,-0.32446 -0.52043,-0.39551c-0.22552,-0.07117 -0.61238,-0.10669 -1.16055,-0.10669l-1.52484,0l0,2.30542l-0.00002,0zm0,3.52332l1.89955,0c0.32613,0 0.55511,-0.01208 0.68697,-0.03638c0.23245,-0.04163 0.42674,-0.11096 0.58287,-0.20825c0.15614,-0.09705 0.2845,-0.2384 0.38513,-0.42407c0.1006,-0.18555 0.15091,-0.3999 0.15091,-0.64282c0,-0.28442 -0.07286,-0.53162 -0.21858,-0.74158c-0.14571,-0.20984 -0.34781,-0.3573 -0.60628,-0.44226c-0.25848,-0.08496 -0.63058,-0.12756 -1.11633,-0.12756l-1.76424,0l0,2.62292zm13.58836,-4.86072l-0.93156,0.07288c-0.08328,-0.3678 -0.20123,-0.63489 -0.3539,-0.80151c-0.25328,-0.26709 -0.56552,-0.40076 -0.93677,-0.40076c-0.29839,0 -0.56033,0.08337 -0.78584,0.24988c-0.29492,0.21509 -0.52737,0.52905 -0.69737,0.94202c-0.17,0.41272 -0.25847,1.00085 -0.26543,1.76416c0.22552,-0.34351 0.50136,-0.59851 0.82748,-0.76501c0.32614,-0.1665 0.66788,-0.24976 1.02525,-0.24976c0.6245,0 1.15619,0.22974 1.59511,0.68958c0.43889,0.45972 0.65834,1.05383 0.65834,1.78235c0,0.47888 -0.10324,0.92383 -0.30966,1.33496c-0.20644,0.41113 -0.49007,0.72595 -0.85089,0.94458c-0.36084,0.21863 -0.77025,0.32788 -1.22821,0.32788c-0.78065,0 -1.4173,-0.28711 -1.90997,-0.86133c-0.49268,-0.5741 -0.73901,-1.52051 -0.73901,-2.83899c0,-1.47449 0.27235,-2.54651 0.81708,-3.21619c0.47531,-0.58289 1.11546,-0.87427 1.92039,-0.87427c0.60022,0 1.09203,0.16821 1.47539,0.50476c0.38339,0.33655 0.61325,0.80139 0.68959,1.39478l0,0l-0.00002,0zm-3.82515,3.28906c0,0.32263 0.06853,0.63147 0.20557,0.92639c0.13705,0.29492 0.32875,0.51953 0.57509,0.67395c0.24632,0.1543 0.50482,0.23157 0.77542,0.23157c0.39554,0 0.73555,-0.15967 1.02005,-0.47888c0.2845,-0.31909 0.42674,-0.75269 0.42674,-1.3009c0,-0.52747 -0.14052,-0.94299 -0.42154,-1.24658c-0.28104,-0.30347 -0.63493,-0.4552 -1.06168,-0.4552c-0.42328,0 -0.78238,0.15173 -1.0773,0.4552c-0.29491,0.30359 -0.44237,0.7019 -0.44237,1.19446l0,0l0.00002,0zm9.82048,1.57166l0,0.90039l-5.04295,0c-0.00694,-0.22559 0.0295,-0.44238 0.1093,-0.65051c0.12837,-0.34351 0.33394,-0.68176 0.6167,-1.01489c0.28279,-0.33301 0.6913,-0.71814 1.22563,-1.1554c0.82921,-0.67993 1.38953,-1.21851 1.68097,-1.61584c0.29143,-0.39722 0.43715,-0.77283 0.43715,-1.12671c0,-0.37122 -0.13271,-0.68445 -0.39813,-0.93945c-0.2654,-0.255 -0.6115,-0.38245 -1.03824,-0.38245c-0.45105,0 -0.81186,0.13525 -1.08249,0.40588c-0.27063,0.27075 -0.40767,0.64539 -0.41115,1.12427l-0.96278,-0.099c0.06593,-0.71814 0.31398,-1.2655 0.7442,-1.64197c0.43022,-0.37634 1.0079,-0.56458 1.73303,-0.56458c0.73206,0 1.31148,0.20288 1.73824,0.60889c0.42674,0.40588 0.64012,0.90906 0.64012,1.50916c0,0.3053 -0.06244,0.60547 -0.18735,0.90039c-0.12492,0.29492 -0.33221,0.60547 -0.62192,0.93152c-0.2897,0.32617 -0.7711,0.77368 -1.44418,1.34277c-0.56207,0.4718 -0.9229,0.79187 -1.08249,0.96021c-0.15961,0.16821 -0.29144,0.3374 -0.39554,0.50732l3.74188,0z" id="text1278" stroke-width="1pt" fill="#000000"/>
  <path d="m406.98169,762.90289c-4.79855,112.28619 -68.61935,181.38544 -169.8689,172.74805c-86.85387,2.87909 -169.38902,-50.38489 -178.50628,-159.79193" id="path1281" stroke-opacity="0.52419" stroke-width="1.625" stroke="#000000" fill-rule="evenodd" fill-opacity="0.75" fill="none"/>
 </g>
</svg>