<?xml version="1.0" standalone="no"?>
<!DOCTYPE svg PUBLIC "-//W3C//DTD SVG 20010904//EN"
 "http://www.w3.org/TR/2001/REC-SVG-20010904/DTD/svg10.dtd">
<svg version="1.0" xmlns="http://www.w3.org/2000/svg"
 width="700.000000pt" height="700.000000pt" viewBox="0 0 700.000000 700.000000"
 preserveAspectRatio="xMidYMid meet">
<metadata>
Created by potrace 1.11, written by Peter Selinger 2001-2013
</metadata>
<g transform="translate(0.000000,700.000000) scale(0.100000,-0.100000)"
fill="#000000" stroke="none">
<path d="M3457 6984 c-1 -1 -69 -4 -152 -8 -82 -3 -163 -8 -180 -10 -16 -2
-61 -6 -100 -10 -38 -4 -82 -9 -96 -11 -27 -5 -59 -9 -144 -20 -44 -5 -107
-16 -185 -31 -14 -3 -34 -7 -45 -9 -343 -63 -800 -210 -1126 -363 l-106 -50 2
-53 c2 -30 4 -107 5 -172 l2 -118 209 -137 c115 -75 303 -198 417 -273 114
-75 302 -198 417 -274 116 -75 296 -193 400 -262 105 -69 309 -203 455 -299
146 -96 270 -172 276 -170 6 2 78 49 160 103 82 54 153 100 159 103 5 3 84 54
175 114 219 145 525 346 740 487 96 63 270 177 387 254 117 77 286 188 376
247 l164 107 2 123 c2 68 4 145 5 172 l2 49 -115 54 c-375 177 -886 339 -1221
389 -25 3 -52 8 -60 9 -65 12 -221 32 -320 40 -136 12 -495 26 -503 19z m258
-699 c146 -15 320 -48 468 -90 112 -31 136 -40 126 -48 -31 -26 -802 -537
-810 -537 -5 0 -135 84 -287 187 -152 102 -331 222 -397 266 -66 45 -122 82
-125 84 -10 9 29 23 159 57 130 34 200 49 285 62 21 3 48 7 59 10 11 2 66 6
121 10 56 4 102 8 104 9 4 4 236 -4 297 -10z"/>
<path d="M75 6353 c3 -43 7 -103 10 -133 3 -30 7 -95 10 -145 7 -118 13 -203
20 -295 3 -41 8 -109 10 -150 2 -41 7 -100 9 -130 3 -30 8 -98 11 -150 3 -52
8 -115 10 -140 2 -25 7 -85 10 -135 8 -148 16 -257 20 -305 2 -25 7 -94 11
-155 4 -60 8 -123 10 -140 1 -16 3 -40 3 -52 1 -23 -22 -6 811 -601 l346 -247
694 2 c382 1 699 2 703 2 7 1 4 61 -8 161 -2 19 -7 63 -10 97 -3 35 -8 91 -11
125 -3 35 -7 77 -9 93 -1 17 -5 66 -9 110 -4 44 -9 94 -11 110 -2 17 -7 68
-11 115 -3 47 -8 92 -9 100 -2 8 -6 53 -10 100 -4 47 -8 96 -11 109 -2 14 -6
62 -10 108 -3 46 -7 91 -9 101 -2 9 -4 20 -4 24 -1 5 -34 29 -73 55 -40 27
-75 50 -78 53 -3 3 -332 223 -732 489 l-728 484 -1 66 c-1 36 -3 100 -4 141
-2 41 -3 105 -4 143 l-1 67 -476 0 -475 0 6 -77z m785 -829 c164 -80 401 -195
505 -244 55 -26 190 -91 300 -145 110 -54 270 -131 355 -172 220 -105 240
-116 240 -122 0 -3 5 -33 10 -66 14 -85 23 -175 18 -175 -5 0 -262 118 -406
186 -51 24 -95 44 -96 44 -2 0 -50 22 -107 49 -86 40 -289 134 -649 299 -264
120 -260 118 -261 154 -2 47 -6 93 -14 171 -4 37 -3 67 2 67 4 0 51 -21 103
-46z m54 -724 c107 -50 223 -104 346 -162 178 -84 785 -370 855 -403 243 -113
225 -102 226 -143 1 -20 3 -46 4 -57 8 -69 14 -135 11 -135 -4 0 -84 36 -181
80 -38 18 -185 84 -325 147 -140 63 -288 130 -328 149 -41 19 -75 34 -77 34
-2 0 -41 18 -87 39 -46 21 -175 80 -288 131 -113 50 -208 95 -212 99 -4 3 -10
24 -13 46 -3 22 -8 49 -10 60 -2 11 -7 47 -11 80 -3 33 -8 63 -11 68 -9 15 18
6 101 -33z"/>
<path d="M5979 6373 c-2 -185 -10 -358 -17 -364 -4 -4 -367 -247 -807 -541
-571 -381 -800 -539 -802 -552 -1 -11 -4 -56 -8 -100 -4 -45 -8 -94 -10 -111
-1 -16 -5 -61 -9 -100 -10 -111 -15 -156 -21 -220 -3 -33 -8 -85 -11 -115 -2
-30 -6 -73 -8 -95 -2 -22 -7 -76 -11 -120 -4 -44 -8 -91 -10 -105 -2 -14 -6
-59 -10 -100 -9 -99 -12 -133 -20 -207 -6 -61 -5 -63 17 -64 13 0 330 -1 704
-1 l682 -1 118 85 c66 47 325 232 577 412 l457 327 1 37 c0 20 2 45 4 54 2 9
6 72 10 140 3 68 8 134 10 148 2 14 7 72 10 130 6 102 10 156 20 290 2 36 7
103 11 150 5 83 7 105 19 295 3 50 8 110 10 135 2 25 6 86 10 135 3 50 8 122
11 160 12 174 15 214 19 283 l5 72 -475 0 -475 0 -1 -57z m265 -875 c-3 -40
-7 -82 -9 -93 -1 -11 -3 -39 -4 -63 l-1 -43 -122 -58 c-68 -32 -157 -74 -198
-93 -41 -20 -124 -59 -185 -88 -60 -29 -141 -67 -180 -85 -102 -47 -394 -185
-510 -240 -55 -26 -129 -60 -164 -76 -35 -17 -86 -41 -113 -55 l-50 -25 6 58
c3 32 9 76 12 98 6 39 11 78 13 101 1 7 16 19 34 27 17 9 131 64 252 122 121
59 263 127 315 152 52 25 163 78 245 118 428 207 574 278 610 295 22 11 44 20
48 20 4 0 5 -33 1 -72z m-59 -680 c-7 -33 -14 -76 -21 -136 -12 -107 -5 -99
-175 -177 -160 -74 -219 -102 -379 -178 -52 -24 -124 -58 -160 -75 -36 -16
-101 -46 -145 -67 -44 -21 -109 -51 -145 -68 -36 -16 -105 -49 -155 -72 -381
-179 -392 -184 -381 -167 3 4 7 26 10 49 2 22 10 77 17 122 l12 81 56 27 c63
29 197 93 374 177 65 31 120 56 121 56 2 0 73 33 157 74 85 40 213 100 284
134 168 78 275 128 405 190 120 58 132 61 125 30z"/>
<path d="M2915 4748 c2 -18 6 -76 10 -128 3 -52 8 -102 10 -110 2 -8 7 -55 10
-105 3 -49 7 -106 10 -125 2 -19 7 -66 10 -105 3 -38 7 -92 10 -120 3 -27 7
-75 10 -105 9 -107 17 -195 20 -230 2 -19 6 -72 10 -117 3 -46 9 -93 12 -105
3 -13 7 -423 9 -913 1 -489 3 -892 3 -895 1 -3 215 -6 476 -6 l475 0 0 140 c1
765 8 1666 13 1686 3 14 8 66 11 115 7 102 12 167 21 275 6 83 10 134 20 260
4 47 8 105 10 130 2 25 7 83 10 130 4 47 8 105 10 130 16 194 17 232 4 224 -8
-4 -140 -91 -294 -193 -154 -102 -287 -185 -295 -185 -8 0 -143 87 -299 192
-156 106 -285 192 -286 192 -1 0 -1 -15 0 -32z"/>
<path d="M534 3793 c3 -32 8 -101 11 -153 4 -52 8 -122 11 -155 2 -33 6 -89 9
-125 2 -36 7 -101 10 -145 3 -44 7 -111 10 -150 3 -38 7 -104 10 -145 4 -70
10 -147 19 -280 2 -30 7 -102 11 -160 4 -58 8 -123 10 -145 2 -22 6 -87 10
-145 4 -58 8 -121 10 -140 2 -19 6 -82 10 -140 3 -58 8 -127 10 -155 3 -27 8
-93 10 -145 3 -52 7 -113 10 -135 2 -22 7 -89 11 -150 4 -60 8 -126 9 -145 2
-19 3 -51 4 -71 l1 -35 173 -88 c94 -49 240 -123 322 -166 376 -194 624 -320
629 -320 3 0 4 503 3 1117 l-2 1117 -180 112 c-99 62 -211 132 -250 155 -38
23 -106 66 -151 94 l-81 53 0 126 c0 69 -1 127 -4 129 -2 2 -114 80 -249 172
-135 92 -280 192 -323 222 l-77 55 4 -59z"/>
<path d="M6370 3783 c-79 -55 -510 -352 -544 -375 -6 -4 -10 -60 -11 -135 l0
-128 -125 -78 c-69 -44 -215 -136 -325 -206 l-200 -126 -1 -1117 -2 -1117 27
10 c14 6 49 23 76 38 28 16 140 75 250 131 279 144 753 389 762 394 1 1 4 55
8 121 3 66 8 131 10 145 2 14 7 77 11 140 4 63 8 131 9 150 10 145 18 261 21
295 5 69 18 256 28 420 4 55 9 120 11 145 3 25 7 88 10 140 4 52 8 120 10 150
2 30 6 96 10 145 3 50 7 115 10 145 2 30 7 93 9 140 6 93 15 215 21 300 2 30
7 96 10 145 3 50 8 114 11 143 2 28 3 52 2 52 -2 -1 -46 -31 -98 -67z"/>
<path d="M2734 3076 c-33 -19 -197 -102 -362 -186 l-302 -153 2 -1211 3 -1210
157 -99 c87 -54 162 -96 166 -93 9 5 26 46 162 381 44 110 85 209 90 220 5 11
52 124 104 250 l94 230 653 0 652 0 154 -375 c85 -206 182 -440 215 -520 33
-80 62 -155 65 -168 3 -12 10 -22 15 -22 5 0 85 44 176 99 l167 99 0 1205 c0
791 -3 1209 -10 1215 -13 12 -703 362 -713 362 -4 0 -7 -372 -7 -827 l0 -828
-707 -2 -708 -1 -2 833 -3 834 -61 -33z"/>
<path d="M3043 888 c-12 -35 -65 -184 -118 -333 -53 -148 -118 -331 -145 -405
l-47 -135 766 0 c488 0 765 4 764 10 -1 6 -43 125 -93 265 -50 140 -106 298
-125 350 -18 52 -50 143 -71 203 l-38 107 -436 0 -436 0 -21 -62z"/>
</g>
</svg>
